<svg xmlns="http://www.w3.org/2000/svg" viewBox="0 0 512 512" width="512" height="512">
  <defs>
    <linearGradient id="sky" x1="0" y1="0" x2="0" y2="1">
      <stop offset="0" stop-color="#059669"/>
      <stop offset="1" stop-color="#047857"/>
    </linearGradient>
  </defs>
  <rect width="512" height="512" rx="112" fill="url(#sky)"/>
  <!-- mountains -->
  <path d="M0 360 L120 200 L210 320 L300 170 L420 340 L512 250 L512 512 L0 512 Z" fill="#065f46"/>
  <path d="M300 170 L336 218 L300 250 L264 218 Z" fill="#ecfdf5" opacity="0.9"/>
  <path d="M120 200 L150 242 L120 268 L90 242 Z" fill="#ecfdf5" opacity="0.9"/>
  <!-- camper van -->
  <g transform="translate(126 300)">
    <rect x="0" y="20" width="260" height="120" rx="26" fill="#f8fafc"/>
    <rect x="0" y="20" width="260" height="46" rx="24" fill="#10b981"/>
    <circle cx="60" cy="150" r="30" fill="#0f172a"/>
    <circle cx="60" cy="150" r="13" fill="#f8fafc"/>
    <circle cx="200" cy="150" r="30" fill="#0f172a"/>
    <circle cx="200" cy="150" r="13" fill="#f8fafc"/>
    <rect x="150" y="80" width="90" height="46" rx="8" fill="#bae6fd"/>
    <rect x="26" y="80" width="96" height="46" rx="8" fill="#bae6fd"/>
  </g>
</svg>
